<svg width="377" height="403" viewBox="0 0 377 403" fill="none" xmlns="http://www.w3.org/2000/svg">
<path d="M52.08 359.08L44.28 387H37.68L32.44 367.12L26.96 387L20.4 387.04L12.88 359.08H18.88L23.8 380.76L29.48 359.08H35.72L41.08 380.64L46.04 359.08H52.08ZM76.3366 375.44C76.3366 376.24 76.2832 376.96 76.1766 377.6H59.9766C60.1099 379.2 60.6699 380.453 61.6566 381.36C62.6432 382.267 63.8566 382.72 65.2966 382.72C67.3766 382.72 68.8566 381.827 69.7366 380.04H75.7766C75.1366 382.173 73.9099 383.933 72.0966 385.32C70.2832 386.68 68.0566 387.36 65.4166 387.36C63.2832 387.36 61.3632 386.893 59.6566 385.96C57.9766 385 56.6566 383.653 55.6966 381.92C54.7632 380.187 54.2966 378.187 54.2966 375.92C54.2966 373.627 54.7632 371.613 55.6966 369.88C56.6299 368.147 57.9366 366.813 59.6166 365.88C61.2966 364.947 63.2299 364.48 65.4166 364.48C67.5232 364.48 69.4032 364.933 71.0566 365.84C72.7366 366.747 74.0299 368.04 74.9366 369.72C75.8699 371.373 76.3366 373.28 76.3366 375.44ZM70.5366 373.84C70.5099 372.4 69.9899 371.253 68.9766 370.4C67.9632 369.52 66.7232 369.08 65.2566 369.08C63.8699 369.08 62.6966 369.507 61.7366 370.36C60.8032 371.187 60.2299 372.347 60.0166 373.84H70.5366ZM107.075 381.68H95.9553L94.1153 387H88.2353L98.2753 359.04H104.795L114.835 387H108.915L107.075 381.68ZM105.555 377.2L101.515 365.52L97.4753 377.2H105.555ZM125.108 369.44V380.16C125.108 380.907 125.281 381.453 125.628 381.8C126.001 382.12 126.615 382.28 127.468 382.28H130.068V387H126.548C121.828 387 119.468 384.707 119.468 380.12V369.44H116.828V364.84H119.468V359.36H125.108V364.84H130.068V369.44H125.108ZM140.616 369.44V380.16C140.616 380.907 140.789 381.453 141.136 381.8C141.509 382.12 142.123 382.28 142.976 382.28H145.576V387H142.056C137.336 387 134.976 384.707 134.976 380.12V369.44H132.336V364.84H134.976V359.36H140.616V364.84H145.576V369.44H140.616ZM155.204 368.28C155.924 367.107 156.857 366.187 158.004 365.52C159.177 364.853 160.51 364.52 162.004 364.52V370.4H160.524C158.764 370.4 157.43 370.813 156.524 371.64C155.644 372.467 155.204 373.907 155.204 375.96V387H149.604V364.84H155.204V368.28ZM164.336 375.84C164.336 373.6 164.776 371.613 165.656 369.88C166.562 368.147 167.776 366.813 169.296 365.88C170.842 364.947 172.562 364.48 174.456 364.48C176.109 364.48 177.549 364.813 178.776 365.48C180.029 366.147 181.029 366.987 181.776 368V364.84H187.416V387H181.776V383.76C181.056 384.8 180.056 385.667 178.776 386.36C177.522 387.027 176.069 387.36 174.416 387.36C172.549 387.36 170.842 386.88 169.296 385.92C167.776 384.96 166.562 383.613 165.656 381.88C164.776 380.12 164.336 378.107 164.336 375.84ZM181.776 375.92C181.776 374.56 181.509 373.4 180.976 372.44C180.442 371.453 179.722 370.707 178.816 370.2C177.909 369.667 176.936 369.4 175.896 369.4C174.856 369.4 173.896 369.653 173.016 370.16C172.136 370.667 171.416 371.413 170.856 372.4C170.322 373.36 170.056 374.507 170.056 375.84C170.056 377.173 170.322 378.347 170.856 379.36C171.416 380.347 172.136 381.107 173.016 381.64C173.922 382.173 174.882 382.44 175.896 382.44C176.936 382.44 177.909 382.187 178.816 381.68C179.722 381.147 180.442 380.4 180.976 379.44C181.509 378.453 181.776 377.28 181.776 375.92ZM191.445 375.92C191.445 373.627 191.912 371.627 192.845 369.92C193.778 368.187 195.072 366.853 196.725 365.92C198.378 364.96 200.272 364.48 202.405 364.48C205.152 364.48 207.418 365.173 209.205 366.56C211.018 367.92 212.232 369.84 212.845 372.32H206.805C206.485 371.36 205.938 370.613 205.165 370.08C204.418 369.52 203.485 369.24 202.365 369.24C200.765 369.24 199.498 369.827 198.565 371C197.632 372.147 197.165 373.787 197.165 375.92C197.165 378.027 197.632 379.667 198.565 380.84C199.498 381.987 200.765 382.56 202.365 382.56C204.632 382.56 206.112 381.547 206.805 379.52H212.845C212.232 381.92 211.018 383.827 209.205 385.24C207.392 386.653 205.125 387.36 202.405 387.36C200.272 387.36 198.378 386.893 196.725 385.96C195.072 385 193.778 383.667 192.845 381.96C191.912 380.227 191.445 378.213 191.445 375.92ZM223.468 369.44V380.16C223.468 380.907 223.641 381.453 223.988 381.8C224.361 382.12 224.974 382.28 225.828 382.28H228.428V387H224.908C220.188 387 217.828 384.707 217.828 380.12V369.44H215.188V364.84H217.828V359.36H223.468V364.84H228.428V369.44H223.468ZM262.347 367.72C262.347 369.213 261.987 370.613 261.267 371.92C260.573 373.227 259.467 374.28 257.947 375.08C256.453 375.88 254.56 376.28 252.267 376.28H247.587V387H241.987V359.08H252.267C254.427 359.08 256.267 359.453 257.787 360.2C259.307 360.947 260.44 361.973 261.187 363.28C261.96 364.587 262.347 366.067 262.347 367.72ZM252.027 371.76C253.573 371.76 254.72 371.413 255.467 370.72C256.213 370 256.587 369 256.587 367.72C256.587 365 255.067 363.64 252.027 363.64H247.587V371.76H252.027ZM286.923 375.44C286.923 376.24 286.869 376.96 286.763 377.6H270.563C270.696 379.2 271.256 380.453 272.243 381.36C273.229 382.267 274.443 382.72 275.883 382.72C277.963 382.72 279.443 381.827 280.323 380.04H286.363C285.723 382.173 284.496 383.933 282.683 385.32C280.869 386.68 278.643 387.36 276.003 387.36C273.869 387.36 271.949 386.893 270.243 385.96C268.563 385 267.243 383.653 266.283 381.92C265.349 380.187 264.882 378.187 264.882 375.92C264.882 373.627 265.349 371.613 266.283 369.88C267.216 368.147 268.523 366.813 270.203 365.88C271.883 364.947 273.816 364.48 276.003 364.48C278.109 364.48 279.989 364.933 281.643 365.84C283.323 366.747 284.616 368.04 285.523 369.72C286.456 371.373 286.923 373.28 286.923 375.44ZM281.123 373.84C281.096 372.4 280.576 371.253 279.563 370.4C278.549 369.52 277.309 369.08 275.843 369.08C274.456 369.08 273.283 369.507 272.323 370.36C271.389 371.187 270.816 372.347 270.603 373.84H281.123ZM300.85 387.36C298.717 387.36 296.797 386.893 295.09 385.96C293.383 385 292.037 383.653 291.05 381.92C290.09 380.187 289.61 378.187 289.61 375.92C289.61 373.653 290.103 371.653 291.09 369.92C292.103 368.187 293.477 366.853 295.21 365.92C296.943 364.96 298.877 364.48 301.01 364.48C303.143 364.48 305.077 364.96 306.81 365.92C308.543 366.853 309.903 368.187 310.89 369.92C311.903 371.653 312.41 373.653 312.41 375.92C312.41 378.187 311.89 380.187 310.85 381.92C309.837 383.653 308.45 385 306.69 385.96C304.957 386.893 303.01 387.36 300.85 387.36ZM300.85 382.48C301.863 382.48 302.81 382.24 303.69 381.76C304.597 381.253 305.317 380.507 305.85 379.52C306.383 378.533 306.65 377.333 306.65 375.92C306.65 373.813 306.09 372.2 304.97 371.08C303.877 369.933 302.53 369.36 300.93 369.36C299.33 369.36 297.983 369.933 296.89 371.08C295.823 372.2 295.29 373.813 295.29 375.92C295.29 378.027 295.81 379.653 296.85 380.8C297.917 381.92 299.25 382.48 300.85 382.48ZM322.118 368.04C322.838 367.027 323.824 366.187 325.078 365.52C326.358 364.827 327.811 364.48 329.438 364.48C331.331 364.48 333.038 364.947 334.558 365.88C336.104 366.813 337.318 368.147 338.198 369.88C339.104 371.587 339.558 373.573 339.558 375.84C339.558 378.107 339.104 380.12 338.198 381.88C337.318 383.613 336.104 384.96 334.558 385.92C333.038 386.88 331.331 387.36 329.438 387.36C327.811 387.36 326.371 387.027 325.118 386.36C323.891 385.693 322.891 384.853 322.118 383.84V397.56H316.518V364.84H322.118V368.04ZM333.838 375.84C333.838 374.507 333.558 373.36 332.998 372.4C332.464 371.413 331.744 370.667 330.838 370.16C329.958 369.653 328.998 369.4 327.958 369.4C326.944 369.4 325.984 369.667 325.078 370.2C324.198 370.707 323.478 371.453 322.918 372.44C322.384 373.427 322.118 374.587 322.118 375.92C322.118 377.253 322.384 378.413 322.918 379.4C323.478 380.387 324.198 381.147 325.078 381.68C325.984 382.187 326.944 382.44 327.958 382.44C328.998 382.44 329.958 382.173 330.838 381.64C331.744 381.107 332.464 380.347 332.998 379.36C333.558 378.373 333.838 377.2 333.838 375.84ZM349.227 357.4V387H343.627V357.4H349.227ZM375.36 375.44C375.36 376.24 375.307 376.96 375.2 377.6H359C359.133 379.2 359.693 380.453 360.68 381.36C361.667 382.267 362.88 382.72 364.32 382.72C366.4 382.72 367.88 381.827 368.76 380.04H374.8C374.16 382.173 372.933 383.933 371.12 385.32C369.307 386.68 367.08 387.36 364.44 387.36C362.307 387.36 360.387 386.893 358.68 385.96C357 385 355.68 383.653 354.72 381.92C353.787 380.187 353.32 378.187 353.32 375.92C353.32 373.627 353.787 371.613 354.72 369.88C355.653 368.147 356.96 366.813 358.64 365.88C360.32 364.947 362.253 364.48 364.44 364.48C366.547 364.48 368.427 364.933 370.08 365.84C371.76 366.747 373.053 368.04 373.96 369.72C374.893 371.373 375.36 373.28 375.36 375.44ZM369.56 373.84C369.533 372.4 369.013 371.253 368 370.4C366.987 369.52 365.747 369.08 364.28 369.08C362.893 369.08 361.72 369.507 360.76 370.36C359.827 371.187 359.253 372.347 359.04 373.84H369.56Z" fill="white"/>
<path d="M99.084 247.637H93.2559C90.0329 247.637 87.4277 245.032 87.4277 241.809C87.4277 238.586 90.0329 235.98 93.2559 235.98H99.084C102.307 235.98 104.912 238.586 104.912 241.809C104.912 245.032 102.307 247.637 99.084 247.637Z" fill="#D3374E"/>
<path d="M34.9922 247.637H29.1641C25.9411 247.637 23.3359 245.032 23.3359 241.809C23.3359 238.586 25.9411 235.98 29.1641 235.98H34.9922C38.2151 235.98 40.8203 238.586 40.8203 241.809C40.8203 245.032 38.2151 247.637 34.9922 247.637Z" fill="#D3374E"/>
<path d="M221.457 125.182H215.629C212.406 125.182 209.801 122.577 209.801 119.354C209.801 116.131 212.406 113.526 215.629 113.526H221.457C224.68 113.526 227.285 116.131 227.285 119.354C227.285 122.577 224.68 125.182 221.457 125.182Z" fill="#434A54"/>
<path d="M157.365 125.182H151.537C148.314 125.182 145.709 122.577 145.709 119.354C145.709 116.131 148.314 113.526 151.537 113.526H157.365C160.588 113.526 163.193 116.131 163.193 119.354C163.193 122.577 160.588 125.182 157.365 125.182Z" fill="#434A54"/>
<path d="M343.854 247.637H338.025C334.802 247.637 332.197 245.032 332.197 241.809C332.197 238.586 334.802 235.98 338.025 235.98H343.854C347.076 235.98 349.682 238.586 349.682 241.809C349.682 245.032 347.076 247.637 343.854 247.637Z" fill="#EDAB37"/>
<path d="M279.762 247.637H273.934C270.711 247.637 268.105 245.032 268.105 241.809C268.105 238.586 270.711 235.98 273.934 235.98H279.762C282.985 235.98 285.59 238.586 285.59 241.809C285.59 245.032 282.985 247.637 279.762 247.637Z" fill="#EDAB37"/>
<path d="M326.375 241.914L332.203 259.398C332.203 259.567 332.028 265.226 308.891 265.226C285.753 265.226 285.578 259.567 285.578 259.398L291.406 241.914H326.375Z" fill="#5D9CEC"/>
<path d="M291.406 189.519H326.375V241.913H291.406V189.519Z" fill="#FFCE54"/>
<path d="M339.78 169.4L326.375 189.519H291.407L278.06 169.406L277.827 169.178C279.867 167.313 282.606 166.206 285.579 166.206H332.204C335.234 166.206 337.973 167.308 340.013 169.178L339.78 169.4Z" fill="#EDAB37"/>
<path d="M343.859 177.863V241.914V276.824C343.859 289.757 333.427 300.137 320.547 300.137H297.234C284.354 300.137 273.922 289.757 273.922 276.824V241.914V177.863C273.922 174.424 275.437 171.271 277.827 169.179L278.06 169.406L291.406 189.519V241.914L285.578 259.398C285.578 259.567 285.753 265.226 308.891 265.226C332.028 265.226 332.203 259.567 332.203 259.398L326.375 241.914V189.519L339.78 169.406L340.013 169.179C342.402 171.323 343.859 174.424 343.859 177.863Z" fill="#F6BB42"/>
<path d="M169.016 67.0698H203.984V119.465H169.016V67.0698Z" fill="#656D78"/>
<path d="M217.389 46.957L203.984 67.0698H169.016L155.611 46.957L155.378 46.7297C157.418 44.8647 160.157 43.7573 163.188 43.7573H209.813C212.843 43.7573 215.582 44.8588 217.622 46.7297L217.389 46.957Z" fill="#434A54"/>
<path d="M203.984 119.465L209.812 136.949C209.812 137.118 209.638 142.777 186.5 142.777C163.362 142.777 163.188 137.118 163.188 136.949L169.016 119.465H203.984Z" fill="#5D9CEC"/>
<path d="M221.469 55.4134V119.464V142.777V154.375C221.469 167.308 211.036 177.687 198.156 177.687H174.844C161.964 177.687 151.531 167.308 151.531 154.375V142.777V119.464V55.4134C151.531 51.9748 153.047 48.8218 155.378 46.7295L155.611 46.9568L169.016 67.0697V119.464L163.188 136.949C163.188 137.118 163.362 142.777 186.5 142.777C209.638 142.777 209.812 137.118 209.812 136.949L203.984 119.464V67.0697L217.389 46.9568L217.622 46.7295C220.012 48.8801 221.469 51.9748 221.469 55.4134Z" fill="#545C66"/>
<path d="M46.625 189.519H81.5938V241.913H46.625V189.519Z" fill="#ED5565"/>
<path d="M81.5938 241.914L87.4219 259.398C87.4219 259.567 87.247 265.226 64.1094 265.226C40.9717 265.226 40.7969 259.567 40.7969 259.398L46.625 241.914H81.5938Z" fill="#5D9CEC"/>
<path d="M46.6254 189.519L33.279 169.406L33.0459 169.178C35.0857 167.313 37.825 166.206 40.7973 166.206H87.4223C90.4529 166.206 93.1922 167.308 95.232 169.178L94.9989 169.406L81.5942 189.519H46.6254Z" fill="#D3374E"/>
<path d="M46.625 241.914L40.7969 259.398C40.7969 259.567 40.9717 265.226 64.1094 265.226C87.247 265.226 87.4219 259.567 87.4219 259.398L81.5938 241.914V189.519L94.9984 169.406L95.2316 169.179C97.5628 171.271 99.0781 174.424 99.0781 177.863V241.914V276.824C99.0781 289.757 88.6458 300.137 75.7656 300.137H52.4531C39.573 300.137 29.1406 289.757 29.1406 276.824V241.914V177.863C29.1406 174.424 30.6559 171.271 33.0455 169.179L33.2786 169.406L46.625 189.519V241.914Z" fill="#DA4453"/>
<path d="M367.166 329.242H5.8457C2.62275 329.242 0.0175781 326.637 0.0175781 323.414C0.0175781 320.191 2.62275 317.586 5.8457 317.586H367.166C370.389 317.586 372.994 320.191 372.994 323.414C372.994 326.637 370.389 329.242 367.166 329.242Z" fill="white"/>
<path d="M367.166 329.242C363.943 329.242 361.338 326.637 361.338 323.414V142.672C361.338 139.449 363.943 136.844 367.166 136.844C370.389 136.844 372.994 139.449 372.994 142.672V323.414C372.994 326.637 370.389 329.242 367.166 329.242Z" fill="white"/>
<path d="M250.604 329.242C247.381 329.242 244.775 326.637 244.775 323.414V142.672C244.775 139.449 247.381 136.844 250.604 136.844C253.826 136.844 256.432 139.449 256.432 142.672V323.414C256.432 326.637 253.826 329.242 250.604 329.242Z" fill="white"/>
<path d="M122.396 329.242C119.174 329.242 116.568 326.637 116.568 323.414V142.672C116.568 139.449 119.174 136.844 122.396 136.844C125.619 136.844 128.225 139.449 128.225 142.672V323.414C128.225 326.637 125.619 329.242 122.396 329.242Z" fill="white"/>
<path d="M5.83398 329.242C2.61103 329.242 0.00585938 326.637 0.00585938 323.414V142.672C0.00585938 139.449 2.61103 136.844 5.83398 136.844C9.05694 136.844 11.6621 139.449 11.6621 142.672V323.414C11.6621 326.637 9.05694 329.242 5.83398 329.242Z" fill="white"/>
<path d="M367.166 148.5H355.516C352.293 148.5 349.688 145.895 349.688 142.672C349.688 139.449 352.293 136.844 355.516 136.844H367.166C370.389 136.844 372.994 139.449 372.994 142.672C372.994 145.895 370.389 148.5 367.166 148.5Z" fill="white"/>
<path d="M17.4903 148.5H5.83984C2.61689 148.5 0.0117188 145.895 0.0117188 142.672C0.0117188 139.449 2.61689 136.844 5.83984 136.844H17.4903C20.7132 136.844 23.3184 139.449 23.3184 142.672C23.3184 145.895 20.7132 148.5 17.4903 148.5Z" fill="white"/>
<path d="M262.266 148.5H238.947C235.724 148.5 233.119 145.895 233.119 142.672C233.119 139.449 235.724 136.844 238.947 136.844H262.266C265.489 136.844 268.094 139.449 268.094 142.672C268.094 145.895 265.489 148.5 262.266 148.5Z" fill="white"/>
<path d="M134.064 148.5H110.746C107.523 148.5 104.918 145.895 104.918 142.672C104.918 139.449 107.523 136.844 110.746 136.844H134.064C137.287 136.844 139.893 139.449 139.893 142.672C139.893 145.895 137.287 148.5 134.064 148.5Z" fill="white"/>
<path d="M186.5 305.907C183.277 305.907 180.672 303.301 180.672 300.078V200.977C180.672 197.754 183.277 195.149 186.5 195.149C189.723 195.149 192.328 197.754 192.328 200.977V300.078C192.328 303.301 189.723 305.907 186.5 305.907Z" fill="white"/>
<path d="M186.5 305.906C185.008 305.906 183.516 305.335 182.38 304.199C180.101 301.92 180.101 298.236 182.38 295.958L194.036 284.301C196.315 282.023 199.998 282.023 202.277 284.301C204.556 286.58 204.556 290.264 202.277 292.542L190.621 304.199C189.484 305.341 187.992 305.906 186.5 305.906Z" fill="white"/>
<path d="M186.5 305.906C185.008 305.906 183.516 305.335 182.38 304.199L170.724 292.542C168.445 290.264 168.445 286.58 170.724 284.301C173.003 282.023 176.686 282.023 178.965 284.301L190.621 295.958C192.9 298.236 192.9 301.92 190.621 304.199C189.484 305.341 187.992 305.906 186.5 305.906Z" fill="white"/>
</svg>
