<svg width="19" height="13" viewBox="0 0 19 13" fill="none" xmlns="http://www.w3.org/2000/svg">
<path d="M9.16667 10C10.2083 10 11.0939 9.63556 11.8233 8.90667C12.5522 8.17722 12.9167 7.29167 12.9167 6.25C12.9167 5.20833 12.5522 4.32278 11.8233 3.59333C11.0939 2.86444 10.2083 2.5 9.16667 2.5C8.125 2.5 7.23945 2.86444 6.51 3.59333C5.78111 4.32278 5.41667 5.20833 5.41667 6.25C5.41667 7.29167 5.78111 8.17722 6.51 8.90667C7.23945 9.63556 8.125 10 9.16667 10ZM9.16667 8.5C8.54167 8.5 8.01056 8.28111 7.57333 7.84333C7.13556 7.40611 6.91667 6.875 6.91667 6.25C6.91667 5.625 7.13556 5.09361 7.57333 4.65583C8.01056 4.21861 8.54167 4 9.16667 4C9.79167 4 10.3231 4.21861 10.7608 4.65583C11.1981 5.09361 11.4167 5.625 11.4167 6.25C11.4167 6.875 11.1981 7.40611 10.7608 7.84333C10.3231 8.28111 9.79167 8.5 9.16667 8.5ZM9.16667 12.5C7.13889 12.5 5.29167 11.9339 3.625 10.8017C1.95833 9.67 0.75 8.15278 0 6.25C0.75 4.34722 1.95833 2.82972 3.625 1.6975C5.29167 0.565833 7.13889 0 9.16667 0C11.1944 0 13.0417 0.565833 14.7083 1.6975C16.375 2.82972 17.5833 4.34722 18.3333 6.25C17.5833 8.15278 16.375 9.67 14.7083 10.8017C13.0417 11.9339 11.1944 12.5 9.16667 12.5ZM9.16667 10.8333C10.7361 10.8333 12.1772 10.42 13.49 9.59333C14.8022 8.76722 15.8056 7.65278 16.5 6.25C15.8056 4.84722 14.8022 3.7325 13.49 2.90583C12.1772 2.07972 10.7361 1.66667 9.16667 1.66667C7.59722 1.66667 6.15611 2.07972 4.84333 2.90583C3.53111 3.7325 2.52778 4.84722 1.83333 6.25C2.52778 7.65278 3.53111 8.76722 4.84333 9.59333C6.15611 10.42 7.59722 10.8333 9.16667 10.8333Z" fill="#444444"/>
</svg>
